G04 (Genere par PCBnew (20080825c)) le 27/4/2010-22:27:54*
G01*
G70*
G90*
%MOIN*%
G04 Gerber Fmt 3.4, Leading zero omitted, Abs format*
%FSLAX34Y34*%
G04 APERTURE LIST*
%ADD10C,0.015000*%
%ADD11R,0.039400X0.035400*%
%ADD12R,0.035400X0.039400*%
%ADD13C,0.056000*%
%ADD14C,0.130000*%
%ADD15C,0.090000*%
%ADD16R,0.055000X0.055000*%
%ADD17C,0.055000*%
%ADD18C,0.070000*%
%ADD19R,0.070000X0.070000*%
%ADD20C,0.080000*%
%ADD21C,0.063000*%
%ADD22C,0.060000*%
%ADD23R,0.060000X0.060000*%
%ADD24R,0.025000X0.045000*%
%ADD25R,0.045000X0.025000*%
%ADD26R,0.020000X0.045000*%
%ADD27R,0.050000X0.030000*%
%ADD28C,0.019800*%
%ADD29C,0.045000*%
%ADD30C,0.008000*%
%ADD31C,0.017000*%
%ADD32R,0.059100X0.076800*%
%ADD33R,0.076800X0.098400*%
%ADD34R,0.120000X0.065000*%
%ADD35R,0.240000X0.240000*%
%ADD36R,0.055100X0.039300*%
%ADD37R,0.036000X0.036000*%
%ADD38R,0.009800X0.060000*%
%ADD39O,0.009800X0.060000*%
%ADD40O,0.060000X0.009800*%
G04 APERTURE END LIST*
G54D10*
X54450Y-57000D02*
X71350Y-57000D01*
X54450Y-56900D02*
X54450Y-57000D01*
X54450Y-56600D02*
X54450Y-56900D01*
X54450Y-56350D02*
X54450Y-56600D01*
X54450Y-56000D02*
X54450Y-56350D01*
X54450Y-23450D02*
X54450Y-56000D01*
X55550Y-23450D02*
X54450Y-23450D01*
X55850Y-23450D02*
X55550Y-23450D01*
X83350Y-23450D02*
X55850Y-23450D01*
X83350Y-23600D02*
X83350Y-23450D01*
X83350Y-23750D02*
X83350Y-23600D01*
X83350Y-24050D02*
X83350Y-23750D01*
X83350Y-57000D02*
X83350Y-24050D01*
X83100Y-57000D02*
X83350Y-57000D01*
X82550Y-57000D02*
X83100Y-57000D01*
X82100Y-57000D02*
X82550Y-57000D01*
X81600Y-57000D02*
X82100Y-57000D01*
X71350Y-57000D02*
X81600Y-57000D01*
G54D11*
X68925Y-46421D03*
X68925Y-45829D03*
X63850Y-44054D03*
X63850Y-44646D03*
X68950Y-44946D03*
X68950Y-44354D03*
X68900Y-47554D03*
X68900Y-48146D03*
G54D12*
X68404Y-38200D03*
X68996Y-38200D03*
X71296Y-38800D03*
X70704Y-38800D03*
G54D11*
X70500Y-39604D03*
X70500Y-40196D03*
G54D12*
X68504Y-40100D03*
X69096Y-40100D03*
G54D11*
X65000Y-40446D03*
X65000Y-39854D03*
X65000Y-38654D03*
X65000Y-39246D03*
X69700Y-39604D03*
X69700Y-40196D03*
G54D12*
X68504Y-39500D03*
X69096Y-39500D03*
G54D11*
X71200Y-40196D03*
X71200Y-39604D03*
G54D12*
X70396Y-37100D03*
X69804Y-37100D03*
X68896Y-37500D03*
X68304Y-37500D03*
G54D11*
X71200Y-38196D03*
X71200Y-37604D03*
X69800Y-38196D03*
X69800Y-37604D03*
X70500Y-37604D03*
X70500Y-38196D03*
G54D13*
X80400Y-44508D03*
X79620Y-44508D03*
X80400Y-45492D03*
G54D14*
X81470Y-47370D03*
X81470Y-42630D03*
G54D13*
X79620Y-45492D03*
G54D15*
X56200Y-37900D03*
X56200Y-39900D03*
G54D16*
X65500Y-55450D03*
G54D17*
X68500Y-55450D03*
G54D16*
X70800Y-23950D03*
G54D17*
X67800Y-23950D03*
G54D16*
X71550Y-52100D03*
G54D17*
X68550Y-52100D03*
G54D16*
X77050Y-24550D03*
G54D17*
X74050Y-24550D03*
G54D16*
X77300Y-55500D03*
G54D17*
X77300Y-52500D03*
G54D16*
X63700Y-25800D03*
G54D17*
X60700Y-25800D03*
G54D16*
X60000Y-52700D03*
G54D17*
X57000Y-52700D03*
G54D16*
X56700Y-25450D03*
G54D17*
X56700Y-28450D03*
G54D18*
X78200Y-45500D03*
G54D19*
X78200Y-50500D03*
G54D20*
X65800Y-38650D03*
G54D18*
X65800Y-40450D03*
G54D21*
X73300Y-31000D03*
X74300Y-31000D03*
X74300Y-31800D03*
X73300Y-31800D03*
G54D22*
X61500Y-39900D03*
G54D23*
X61500Y-38900D03*
G54D22*
X61500Y-40900D03*
G54D24*
X68225Y-46225D03*
X67625Y-46225D03*
X63200Y-44200D03*
X62600Y-44200D03*
X68200Y-44800D03*
X67600Y-44800D03*
X68200Y-47750D03*
X67600Y-47750D03*
X59600Y-48800D03*
X59000Y-48800D03*
X57500Y-30950D03*
X56900Y-30950D03*
X57600Y-46750D03*
X57000Y-46750D03*
X60000Y-30950D03*
X59400Y-30950D03*
X57600Y-44700D03*
X57000Y-44700D03*
X60000Y-32650D03*
X59400Y-32650D03*
X59600Y-46750D03*
X59000Y-46750D03*
X57500Y-32750D03*
X56900Y-32750D03*
G54D25*
X63850Y-54900D03*
X63850Y-55500D03*
X72600Y-24050D03*
X72600Y-24650D03*
X72550Y-50900D03*
X72550Y-51500D03*
X77900Y-26150D03*
X77900Y-25550D03*
G54D24*
X75700Y-56300D03*
X76300Y-56300D03*
G54D25*
X64600Y-27550D03*
X64600Y-26950D03*
G54D24*
X61450Y-51850D03*
X60850Y-51850D03*
G54D25*
X57600Y-24050D03*
X57600Y-24650D03*
G54D26*
X64750Y-32650D03*
X64250Y-32650D03*
X63750Y-32650D03*
X63250Y-32650D03*
X62750Y-32650D03*
X62250Y-32650D03*
X61750Y-32650D03*
X61750Y-30550D03*
X62250Y-30550D03*
X62750Y-30550D03*
X63250Y-30550D03*
X63750Y-30550D03*
X64250Y-30550D03*
X64750Y-30550D03*
G54D27*
X70050Y-29300D03*
X70050Y-29800D03*
X70050Y-30300D03*
X70050Y-30800D03*
X70050Y-31300D03*
X70050Y-31800D03*
X70050Y-32300D03*
X70050Y-32800D03*
X70050Y-33300D03*
X70050Y-33800D03*
X70050Y-34300D03*
X70050Y-34800D03*
X66250Y-29300D03*
X66250Y-29800D03*
X66250Y-30300D03*
X66250Y-30800D03*
X66250Y-31300D03*
X66250Y-31800D03*
X66250Y-32300D03*
X66250Y-32800D03*
X66250Y-33300D03*
X66250Y-33800D03*
X66250Y-34300D03*
X66250Y-34800D03*
G54D23*
X81050Y-39600D03*
G54D22*
X82050Y-39600D03*
X81050Y-38600D03*
X82050Y-38600D03*
X81050Y-37600D03*
X82050Y-37600D03*
X81050Y-36600D03*
X82050Y-36600D03*
X81050Y-35600D03*
X82050Y-35600D03*
X81050Y-34600D03*
X82050Y-34600D03*
X81050Y-33600D03*
X82050Y-33600D03*
X81050Y-32600D03*
X82050Y-32600D03*
X81050Y-31600D03*
X82050Y-31600D03*
X81050Y-30600D03*
X82050Y-30600D03*
G54D23*
X76800Y-40500D03*
G54D22*
X77800Y-40500D03*
X76800Y-39500D03*
X77800Y-39500D03*
X76800Y-38500D03*
X77800Y-38500D03*
X76800Y-37500D03*
X77800Y-37500D03*
X76800Y-36500D03*
X77800Y-36500D03*
X76800Y-35500D03*
X77800Y-35500D03*
X76800Y-34500D03*
X77800Y-34500D03*
X76800Y-33500D03*
X77800Y-33500D03*
X76800Y-32500D03*
X77800Y-32500D03*
X76800Y-31500D03*
X77800Y-31500D03*
G54D17*
X74200Y-47700D03*
X77200Y-47700D03*
X77200Y-46400D03*
X74200Y-46400D03*
G54D28*
X69300Y-46100D03*
X71650Y-30800D03*
X71950Y-31150D03*
X69500Y-48950D03*
X58350Y-47100D03*
G54D29*
X58600Y-43200D03*
X59400Y-43500D03*
G54D28*
X71700Y-40450D03*
X75650Y-40200D03*
X68150Y-40450D03*
X68550Y-42800D03*
X63250Y-30050D03*
X68700Y-34050D03*
X69450Y-30300D03*
X64200Y-44650D03*
X69600Y-44400D03*
X68700Y-36900D03*
X69300Y-41900D03*
X69100Y-41650D03*
X69050Y-42400D03*
X68250Y-43400D03*
X69300Y-47550D03*
X69950Y-44900D03*
X69950Y-44350D03*
X70350Y-43000D03*
X68750Y-43000D03*
X65300Y-33650D03*
X65000Y-33900D03*
X65950Y-42600D03*
X70450Y-42600D03*
X69850Y-43850D03*
X69000Y-43850D03*
X64100Y-42150D03*
X64500Y-41800D03*
X65500Y-33800D03*
X65150Y-34100D03*
X63900Y-35250D03*
X63450Y-35650D03*
X69600Y-43600D03*
X69000Y-43600D03*
X65700Y-33950D03*
X65300Y-34350D03*
X64400Y-35100D03*
X63500Y-35050D03*
X64250Y-49950D03*
X64250Y-48750D03*
X64250Y-48200D03*
X64500Y-45100D03*
X69600Y-26900D03*
X64550Y-48750D03*
X65250Y-49900D03*
X67450Y-51700D03*
X71450Y-54600D03*
X69400Y-28200D03*
X63100Y-48900D03*
X64900Y-50250D03*
X69200Y-53300D03*
X74450Y-53400D03*
X66450Y-27200D03*
X62750Y-28250D03*
X62750Y-32200D03*
X63450Y-46150D03*
X63500Y-48250D03*
X63500Y-49000D03*
X63500Y-50000D03*
X63000Y-53800D03*
X63150Y-54500D03*
X58950Y-27800D03*
X60950Y-29800D03*
X63750Y-33700D03*
X68100Y-40100D03*
X68000Y-38200D03*
X71650Y-38800D03*
X63100Y-38100D03*
X64350Y-38100D03*
X65600Y-47000D03*
X67250Y-48000D03*
X69950Y-47950D03*
X70900Y-47550D03*
X71600Y-47400D03*
X72300Y-47450D03*
X73450Y-48250D03*
X73750Y-47100D03*
X76750Y-47100D03*
X77550Y-47150D03*
X63250Y-47150D03*
X61350Y-46200D03*
X61400Y-44250D03*
X61400Y-43850D03*
G54D29*
X77600Y-43850D03*
X79550Y-48450D03*
G54D28*
X68100Y-39600D03*
X67700Y-41000D03*
X71600Y-40050D03*
X71550Y-38050D03*
X69600Y-38600D03*
X69250Y-37400D03*
X66800Y-38800D03*
X66800Y-38350D03*
X64350Y-37850D03*
X62850Y-37850D03*
X60300Y-46100D03*
X62700Y-46550D03*
X81000Y-45100D03*
X79450Y-46850D03*
X77500Y-46850D03*
X76750Y-46800D03*
X73200Y-46850D03*
X73150Y-48400D03*
X72350Y-48100D03*
X71600Y-47700D03*
X70900Y-48450D03*
X69700Y-49400D03*
X69000Y-49400D03*
X65400Y-47400D03*
X63250Y-47400D03*
X62200Y-47350D03*
X60250Y-44400D03*
X62100Y-42550D03*
G54D29*
X76650Y-43750D03*
G54D28*
X70350Y-35550D03*
X69900Y-35550D03*
X71100Y-34900D03*
X71150Y-33600D03*
X73250Y-34700D03*
X64000Y-49950D03*
X64000Y-48650D03*
X70850Y-47200D03*
X61150Y-28300D03*
X61150Y-27750D03*
X76450Y-26750D03*
X72100Y-26500D03*
X71150Y-24650D03*
X66150Y-24500D03*
X64400Y-53550D03*
X71900Y-55800D03*
X74400Y-56300D03*
G54D29*
X60300Y-33450D03*
G54D28*
X67150Y-46200D03*
X62200Y-44250D03*
X67100Y-44700D03*
X67200Y-47750D03*
X66750Y-29800D03*
X61100Y-30550D03*
X65750Y-34350D03*
X66750Y-34300D03*
X66700Y-31300D03*
X62000Y-31700D03*
X62450Y-31700D03*
X66750Y-32800D03*
X61950Y-48950D03*
X61950Y-49450D03*
X59000Y-48250D03*
X56900Y-31550D03*
X64800Y-46150D03*
X57000Y-47250D03*
X62200Y-29750D03*
X64200Y-33250D03*
X59400Y-31550D03*
X61150Y-45650D03*
X61150Y-47000D03*
X64750Y-48450D03*
X57000Y-45200D03*
X59400Y-33650D03*
X63050Y-46950D03*
X63050Y-46550D03*
X59000Y-46150D03*
X61550Y-32150D03*
X62500Y-32100D03*
X56900Y-33450D03*
X67350Y-51050D03*
X68000Y-51050D03*
X74150Y-37950D03*
X73200Y-26300D03*
X73200Y-26750D03*
X72750Y-31450D03*
X72750Y-32050D03*
X73550Y-39550D03*
X72550Y-46150D03*
X72350Y-45250D03*
X74350Y-38200D03*
X75100Y-33300D03*
X75100Y-33800D03*
X74150Y-35550D03*
X74000Y-36600D03*
X73350Y-39400D03*
X75500Y-45850D03*
X75700Y-46200D03*
X74350Y-39200D03*
X65350Y-27950D03*
X68550Y-28450D03*
X69500Y-28450D03*
X74850Y-31450D03*
X74850Y-32150D03*
X75300Y-33950D03*
X73850Y-39750D03*
X67600Y-50800D03*
X68300Y-50800D03*
X73950Y-37750D03*
X70550Y-42800D03*
X68900Y-43200D03*
X65950Y-43200D03*
X65350Y-43800D03*
X64900Y-43700D03*
X64450Y-43850D03*
X63600Y-43650D03*
X71899Y-36801D03*
X73147Y-37228D03*
X74326Y-37441D03*
X67082Y-37122D03*
X72955Y-25400D03*
X67100Y-48200D03*
X64700Y-44450D03*
X64350Y-44100D03*
X65450Y-41450D03*
X67150Y-35700D03*
X69100Y-35750D03*
X67150Y-44300D03*
X65050Y-44150D03*
X64050Y-42500D03*
X65150Y-41450D03*
X67250Y-35500D03*
X69400Y-35400D03*
X71650Y-46700D03*
X74600Y-44250D03*
X74550Y-40500D03*
X74550Y-39900D03*
X74550Y-37200D03*
X74550Y-36600D03*
X72400Y-35050D03*
X70650Y-35600D03*
X71650Y-46200D03*
X74850Y-44500D03*
X74800Y-40450D03*
X74800Y-39900D03*
X71950Y-34900D03*
X71800Y-32800D03*
X71050Y-32800D03*
X75050Y-40450D03*
X75050Y-39850D03*
X73000Y-36850D03*
X72350Y-36850D03*
X71650Y-34900D03*
X71550Y-33300D03*
X71050Y-33300D03*
X70850Y-35350D03*
X70800Y-33700D03*
X71100Y-31300D03*
X71100Y-35400D03*
X71350Y-34900D03*
X70966Y-49483D03*
X68092Y-36601D03*
X73330Y-29347D03*
X69343Y-31012D03*
X68542Y-35095D03*
X75141Y-35737D03*
X70518Y-34439D03*
X69874Y-35176D03*
X71924Y-27706D03*
X68485Y-36772D03*
X73877Y-35220D03*
X73551Y-35558D03*
X71537Y-36874D03*
X74684Y-34809D03*
X72529Y-34458D03*
X71486Y-36189D03*
X75458Y-34129D03*
X72525Y-33636D03*
X70479Y-35874D03*
X74139Y-37611D03*
X73273Y-37432D03*
X72787Y-38379D03*
X76224Y-29629D03*
X72927Y-29189D03*
X69422Y-30729D03*
X71781Y-37105D03*
X76594Y-29803D03*
X72935Y-30081D03*
X71014Y-30474D03*
X72607Y-38578D03*
X67528Y-40354D03*
X67875Y-40484D03*
X70887Y-41446D03*
X68316Y-34650D03*
X69135Y-31213D03*
X67869Y-36123D03*
X72519Y-33897D03*
G54D30*
X68925Y-46421D02*
X68979Y-46421D01*
X68979Y-46421D02*
X69300Y-46100D01*
X68225Y-46225D02*
X68275Y-46225D01*
X68275Y-46225D02*
X68471Y-46421D01*
X68471Y-46421D02*
X68925Y-46421D01*
X70061Y-37100D02*
X70061Y-36843D01*
X70061Y-36843D02*
X70073Y-36831D01*
X70073Y-36831D02*
X70720Y-36831D01*
X70720Y-36831D02*
X70898Y-37009D01*
X70898Y-37009D02*
X70898Y-37652D01*
X71200Y-39604D02*
X71200Y-39347D01*
X70704Y-38494D02*
X71601Y-38494D01*
X71601Y-38494D02*
X71892Y-38785D01*
X71892Y-38785D02*
X71892Y-38817D01*
X71892Y-38817D02*
X71362Y-39347D01*
X71362Y-39347D02*
X71200Y-39347D01*
X70704Y-38494D02*
X70704Y-38400D01*
X70704Y-38400D02*
X70500Y-38196D01*
X70704Y-38800D02*
X70704Y-38494D01*
X69804Y-37100D02*
X70061Y-37100D01*
X70898Y-37652D02*
X70946Y-37604D01*
X70946Y-37604D02*
X71200Y-37604D01*
X70500Y-38196D02*
X70804Y-38196D01*
X70804Y-38196D02*
X70850Y-38150D01*
X70850Y-38150D02*
X70850Y-37700D01*
X70850Y-37700D02*
X70898Y-37652D01*
X65000Y-39854D02*
X64723Y-39854D01*
X61500Y-39900D02*
X64677Y-39900D01*
X64677Y-39900D02*
X64723Y-39854D01*
X70500Y-40196D02*
X70754Y-40196D01*
X70754Y-40196D02*
X70850Y-40100D01*
X70850Y-40100D02*
X70850Y-39800D01*
X70850Y-39800D02*
X71046Y-39604D01*
X71046Y-39604D02*
X71200Y-39604D01*
X65000Y-39246D02*
X65000Y-39854D01*
X69700Y-40196D02*
X70500Y-40196D01*
X69096Y-40100D02*
X69604Y-40100D01*
X69604Y-40100D02*
X69700Y-40196D01*
X69804Y-37100D02*
X68600Y-37100D01*
X69800Y-37604D02*
X69800Y-37104D01*
X69800Y-37104D02*
X69804Y-37100D01*
X68996Y-38200D02*
X68996Y-38054D01*
X68996Y-38054D02*
X69446Y-37604D01*
X69446Y-37604D02*
X69800Y-37604D01*
X69429Y-45829D02*
X69479Y-45829D01*
X69479Y-45829D02*
X69500Y-45850D01*
X69500Y-45850D02*
X69500Y-48650D01*
X68925Y-45829D02*
X69429Y-45829D01*
X69096Y-39500D02*
X69096Y-40100D01*
X69500Y-48650D02*
X69500Y-48700D01*
X69500Y-48700D02*
X69500Y-48650D01*
X69500Y-48950D02*
X69500Y-48700D01*
X70050Y-30300D02*
X71150Y-30300D01*
X71150Y-30300D02*
X71650Y-30800D01*
X71950Y-31150D02*
X72600Y-31800D01*
X72600Y-31800D02*
X73300Y-31800D01*
X69500Y-48650D02*
X69500Y-48700D01*
X57000Y-52700D02*
X57000Y-51500D01*
X57000Y-51500D02*
X58350Y-50150D01*
X58350Y-50150D02*
X58350Y-47100D01*
G54D31*
X58600Y-43200D02*
X58900Y-43500D01*
X58900Y-43500D02*
X59400Y-43500D01*
G54D30*
X68550Y-42800D02*
X66050Y-42800D01*
X66050Y-42800D02*
X64200Y-44650D01*
X71700Y-40450D02*
X71600Y-40550D01*
X71600Y-40550D02*
X70854Y-40550D01*
X70854Y-40550D02*
X70500Y-40196D01*
X75650Y-40200D02*
X75850Y-40000D01*
X75850Y-40000D02*
X77300Y-40000D01*
X77300Y-40000D02*
X77800Y-39500D01*
X69096Y-40100D02*
X69096Y-40304D01*
X69096Y-40304D02*
X68950Y-40450D01*
X68950Y-40450D02*
X68150Y-40450D01*
X68950Y-44354D02*
X68904Y-44354D01*
X68904Y-44354D02*
X68550Y-44000D01*
X68550Y-44000D02*
X68550Y-42800D01*
X63250Y-30050D02*
X63250Y-30550D01*
X70050Y-34300D02*
X68950Y-34300D01*
X68950Y-34300D02*
X68700Y-34050D01*
X69450Y-30300D02*
X70050Y-30300D01*
X64200Y-44650D02*
X64196Y-44646D01*
X64196Y-44646D02*
X63850Y-44646D01*
X69429Y-45829D02*
X69600Y-45658D01*
X69600Y-45658D02*
X69600Y-44400D01*
X68925Y-45829D02*
X69429Y-45829D01*
X69600Y-44400D02*
X69554Y-44354D01*
X69554Y-44354D02*
X68950Y-44354D01*
X69500Y-48700D02*
X68946Y-48146D01*
X68946Y-48146D02*
X68900Y-48146D01*
X68304Y-37500D02*
X68304Y-37754D01*
X68304Y-37754D02*
X68400Y-37850D01*
X68400Y-37850D02*
X68900Y-37850D01*
X68900Y-37850D02*
X68996Y-37946D01*
X68996Y-37946D02*
X68996Y-38200D01*
X68600Y-37100D02*
X68600Y-37000D01*
X68600Y-37000D02*
X68700Y-36900D01*
X68600Y-37100D02*
X68400Y-37100D01*
X68400Y-37100D02*
X68304Y-37196D01*
X68304Y-37196D02*
X68304Y-37500D01*
X63850Y-44054D02*
X63850Y-42050D01*
X63850Y-42050D02*
X64650Y-41250D01*
X64650Y-41250D02*
X69300Y-41250D01*
X69300Y-41250D02*
X69300Y-41900D01*
X63200Y-44200D02*
X63704Y-44200D01*
X63704Y-44200D02*
X63850Y-44054D01*
X69050Y-42400D02*
X69100Y-42350D01*
X69100Y-42350D02*
X69100Y-41650D01*
X68200Y-44800D02*
X68200Y-43450D01*
X68200Y-43450D02*
X68250Y-43400D01*
X68200Y-44800D02*
X68350Y-44800D01*
X68350Y-44800D02*
X68496Y-44946D01*
X68496Y-44946D02*
X68950Y-44946D01*
X68900Y-47554D02*
X69296Y-47554D01*
X69296Y-47554D02*
X69300Y-47550D01*
X69950Y-44900D02*
X69950Y-44350D01*
X68200Y-47750D02*
X68400Y-47750D01*
X68400Y-47750D02*
X68596Y-47554D01*
X68596Y-47554D02*
X68900Y-47554D01*
X68750Y-43000D02*
X70350Y-43000D01*
X65300Y-33650D02*
X65050Y-33900D01*
X65050Y-33900D02*
X65000Y-33900D01*
X65950Y-42600D02*
X70450Y-42600D01*
X69000Y-43850D02*
X69850Y-43850D01*
X64500Y-41800D02*
X64150Y-42150D01*
X64150Y-42150D02*
X64100Y-42150D01*
X65500Y-33800D02*
X65200Y-34100D01*
X65200Y-34100D02*
X65150Y-34100D01*
X63900Y-35250D02*
X63500Y-35650D01*
X63500Y-35650D02*
X63450Y-35650D01*
X69000Y-43600D02*
X69600Y-43600D01*
X65700Y-33950D02*
X65300Y-34350D01*
X64400Y-35100D02*
X64350Y-35050D01*
X64350Y-35050D02*
X63500Y-35050D01*
X64250Y-48750D02*
X64250Y-49950D01*
X64250Y-48200D02*
X65150Y-47300D01*
X65150Y-47300D02*
X65150Y-45750D01*
X65150Y-45750D02*
X64500Y-45100D01*
X69600Y-26900D02*
X68100Y-28400D01*
X68100Y-28400D02*
X62850Y-28400D01*
X62850Y-28400D02*
X62750Y-28500D01*
X62750Y-28500D02*
X62750Y-30550D01*
X64550Y-48750D02*
X65250Y-49450D01*
X65250Y-49450D02*
X65250Y-49900D01*
X67450Y-51700D02*
X67850Y-52100D01*
X67850Y-52100D02*
X67850Y-52450D01*
X67850Y-52450D02*
X70000Y-54600D01*
X70000Y-54600D02*
X71450Y-54600D01*
X69400Y-28200D02*
X68500Y-28200D01*
X68500Y-28200D02*
X68150Y-28550D01*
X68150Y-28550D02*
X63850Y-28550D01*
X63850Y-28550D02*
X63750Y-28650D01*
X63750Y-28650D02*
X63750Y-30550D01*
X63100Y-48900D02*
X63100Y-50050D01*
X63100Y-50050D02*
X63300Y-50250D01*
X63300Y-50250D02*
X64900Y-50250D01*
X69200Y-53300D02*
X69300Y-53400D01*
X69300Y-53400D02*
X74450Y-53400D01*
X66450Y-27200D02*
X65400Y-28250D01*
X65400Y-28250D02*
X62750Y-28250D01*
X62750Y-32200D02*
X62750Y-32650D01*
X63500Y-48250D02*
X63450Y-48200D01*
X63450Y-48200D02*
X63450Y-46150D01*
X63500Y-49000D02*
X63500Y-50000D01*
X63000Y-53800D02*
X63150Y-53950D01*
X63150Y-53950D02*
X63150Y-54500D01*
X58950Y-27800D02*
X60950Y-29800D01*
X63750Y-33700D02*
X63750Y-32650D01*
X68504Y-40100D02*
X68100Y-40100D01*
X68404Y-38200D02*
X68000Y-38200D01*
X68504Y-39500D02*
X68504Y-40100D01*
X68650Y-39100D02*
X68600Y-39100D01*
X68600Y-39100D02*
X68404Y-38904D01*
X68404Y-38904D02*
X68404Y-38200D01*
X69800Y-39200D02*
X69500Y-39200D01*
X69500Y-39200D02*
X69400Y-39100D01*
X69400Y-39100D02*
X68650Y-39100D01*
X68650Y-39100D02*
X68504Y-39246D01*
X68504Y-39246D02*
X68504Y-39500D01*
X69800Y-39200D02*
X69700Y-39300D01*
X69700Y-39300D02*
X69700Y-39604D01*
X70600Y-39200D02*
X69800Y-39200D01*
X71296Y-38800D02*
X71296Y-39004D01*
X71296Y-39004D02*
X71100Y-39200D01*
X71100Y-39200D02*
X70600Y-39200D01*
X70600Y-39200D02*
X70500Y-39300D01*
X70500Y-39300D02*
X70500Y-39604D01*
X71296Y-38800D02*
X71650Y-38800D01*
X65000Y-40446D02*
X65796Y-40446D01*
X65796Y-40446D02*
X65800Y-40450D01*
X65000Y-38654D02*
X65796Y-38654D01*
X65796Y-38654D02*
X65800Y-38650D01*
X64350Y-38100D02*
X63100Y-38100D01*
X67250Y-48000D02*
X67200Y-47950D01*
X67200Y-47950D02*
X67100Y-47950D01*
X67100Y-47950D02*
X67000Y-47850D01*
X67000Y-47850D02*
X66450Y-47850D01*
X66450Y-47850D02*
X65600Y-47000D01*
X70900Y-47550D02*
X70500Y-47950D01*
X70500Y-47950D02*
X69950Y-47950D01*
X72300Y-47450D02*
X72250Y-47400D01*
X72250Y-47400D02*
X71600Y-47400D01*
X73750Y-47100D02*
X73450Y-47400D01*
X73450Y-47400D02*
X73450Y-48250D01*
X77550Y-47150D02*
X77500Y-47100D01*
X77500Y-47100D02*
X76750Y-47100D01*
X63250Y-47150D02*
X63250Y-46200D01*
X63250Y-46200D02*
X61350Y-46200D01*
X61400Y-44250D02*
X61400Y-43850D01*
G54D31*
X77600Y-43850D02*
X78950Y-45200D01*
X78950Y-45200D02*
X78950Y-47850D01*
X78950Y-47850D02*
X79550Y-48450D01*
G54D30*
X77800Y-40500D02*
X79098Y-39202D01*
X79098Y-39202D02*
X81411Y-39202D01*
X81411Y-39202D02*
X81591Y-39022D01*
X81591Y-39022D02*
X81591Y-38059D01*
X81591Y-38059D02*
X82050Y-37600D01*
X70500Y-37604D02*
X70223Y-37604D01*
X69800Y-38298D02*
X70223Y-37875D01*
X70223Y-37875D02*
X70223Y-37604D01*
X69800Y-38298D02*
X69800Y-38400D01*
X69800Y-38400D02*
X69600Y-38600D01*
X69800Y-38196D02*
X69800Y-38298D01*
X74200Y-47700D02*
X73900Y-47700D01*
X73900Y-47700D02*
X75950Y-45650D01*
X75950Y-45650D02*
X75950Y-41350D01*
X75950Y-41350D02*
X76800Y-40500D01*
X68100Y-39600D02*
X67700Y-40000D01*
X67700Y-40000D02*
X67700Y-41000D01*
X71200Y-40196D02*
X71454Y-40196D01*
X71454Y-40196D02*
X71600Y-40050D01*
X71200Y-38196D02*
X71404Y-38196D01*
X71404Y-38196D02*
X71550Y-38050D01*
X68896Y-37500D02*
X69150Y-37500D01*
X69150Y-37500D02*
X69250Y-37400D01*
X70396Y-37100D02*
X70396Y-37500D01*
X70396Y-37500D02*
X70500Y-37604D01*
X66800Y-38800D02*
X66800Y-38350D01*
X64350Y-37850D02*
X62850Y-37850D01*
X62700Y-46550D02*
X62650Y-46500D01*
X62650Y-46500D02*
X60700Y-46500D01*
X60700Y-46500D02*
X60300Y-46100D01*
X81000Y-45100D02*
X81000Y-45950D01*
X81000Y-45950D02*
X80100Y-46850D01*
X80100Y-46850D02*
X79450Y-46850D01*
X77500Y-46850D02*
X77450Y-46800D01*
X77450Y-46800D02*
X76750Y-46800D01*
X73200Y-46850D02*
X73150Y-46900D01*
X73150Y-46900D02*
X73150Y-48400D01*
X72350Y-48100D02*
X71950Y-47700D01*
X71950Y-47700D02*
X71600Y-47700D01*
X70900Y-48450D02*
X70900Y-49000D01*
X70900Y-49000D02*
X70500Y-49400D01*
X70500Y-49400D02*
X69700Y-49400D01*
X69000Y-49400D02*
X68000Y-48400D01*
X68000Y-48400D02*
X66400Y-48400D01*
X66400Y-48400D02*
X65400Y-47400D01*
X63250Y-47400D02*
X63200Y-47350D01*
X63200Y-47350D02*
X62200Y-47350D01*
X60250Y-44400D02*
X62100Y-42550D01*
G54D31*
X76650Y-43750D02*
X76250Y-44150D01*
X76250Y-44150D02*
X76250Y-48550D01*
X76250Y-48550D02*
X78200Y-50500D01*
X63850Y-55500D02*
X65450Y-55500D01*
X65450Y-55500D02*
X65500Y-55450D01*
X70800Y-23950D02*
X71150Y-23950D01*
X71150Y-23950D02*
X71850Y-24650D01*
X71850Y-24650D02*
X72600Y-24650D01*
X72550Y-51500D02*
X72150Y-51500D01*
X72150Y-51500D02*
X71550Y-52100D01*
X77050Y-24550D02*
X77050Y-24700D01*
X77050Y-24700D02*
X77900Y-25550D01*
X77300Y-55500D02*
X77100Y-55500D01*
X77100Y-55500D02*
X76300Y-56300D01*
X63700Y-25800D02*
X63700Y-26050D01*
X63700Y-26050D02*
X64600Y-26950D01*
X60000Y-52700D02*
X60850Y-51850D01*
X56700Y-25450D02*
X56800Y-25450D01*
X56800Y-25450D02*
X57600Y-24650D01*
G54D30*
X69900Y-35550D02*
X70350Y-35550D01*
X71100Y-34900D02*
X71150Y-34850D01*
X71150Y-34850D02*
X71150Y-33600D01*
X73250Y-34700D02*
X74450Y-33500D01*
X74450Y-33500D02*
X76800Y-33500D01*
X64000Y-48650D02*
X64000Y-49950D01*
X70850Y-47200D02*
X69750Y-47200D01*
X69750Y-47200D02*
X69750Y-49000D01*
X69750Y-49000D02*
X67250Y-51500D01*
X67250Y-51500D02*
X66450Y-51500D01*
X66450Y-51500D02*
X64400Y-53550D01*
X72100Y-26500D02*
X72100Y-30650D01*
X72100Y-30650D02*
X70950Y-31800D01*
X70950Y-31800D02*
X70050Y-31800D01*
X61150Y-28300D02*
X61150Y-27750D01*
X76450Y-26750D02*
X76200Y-26500D01*
X76200Y-26500D02*
X72100Y-26500D01*
X71150Y-24650D02*
X71000Y-24500D01*
X71000Y-24500D02*
X66150Y-24500D01*
G54D31*
X71900Y-55800D02*
X70150Y-55800D01*
X70150Y-55800D02*
X67900Y-53550D01*
X67900Y-53550D02*
X64400Y-53550D01*
X71900Y-55800D02*
X72400Y-56300D01*
X72400Y-56300D02*
X74400Y-56300D01*
G54D30*
X63250Y-32650D02*
X63250Y-33150D01*
X63250Y-33150D02*
X62950Y-33450D01*
X62950Y-33450D02*
X60300Y-33450D01*
X67150Y-46200D02*
X67175Y-46225D01*
X67175Y-46225D02*
X67625Y-46225D01*
X62600Y-44200D02*
X62250Y-44200D01*
X62250Y-44200D02*
X62200Y-44250D01*
X67100Y-44700D02*
X67200Y-44800D01*
X67200Y-44800D02*
X67600Y-44800D01*
X67200Y-47750D02*
X67600Y-47750D01*
X66750Y-29800D02*
X66250Y-29800D01*
X64750Y-30550D02*
X64750Y-30200D01*
X64750Y-30200D02*
X65150Y-29800D01*
X65150Y-29800D02*
X66250Y-29800D01*
X65750Y-34350D02*
X65800Y-34300D01*
X65800Y-34300D02*
X66250Y-34300D01*
X61750Y-30550D02*
X61100Y-30550D01*
X66750Y-34300D02*
X66250Y-34300D01*
X66250Y-31300D02*
X66700Y-31300D01*
X61750Y-32650D02*
X61750Y-31950D01*
X61750Y-31950D02*
X62000Y-31700D01*
X62450Y-31700D02*
X62700Y-31450D01*
X62700Y-31450D02*
X65700Y-31450D01*
X65700Y-31450D02*
X65850Y-31300D01*
X65850Y-31300D02*
X66250Y-31300D01*
X66250Y-32800D02*
X66750Y-32800D01*
X64750Y-32650D02*
X66100Y-32650D01*
X66100Y-32650D02*
X66250Y-32800D01*
X59600Y-48800D02*
X61800Y-48800D01*
X61800Y-48800D02*
X61950Y-48950D01*
X61950Y-48950D02*
X61950Y-49450D01*
X59000Y-48250D02*
X59000Y-48800D01*
X57500Y-30950D02*
X58500Y-30950D01*
X58500Y-30950D02*
X59000Y-31450D01*
X59000Y-31450D02*
X59000Y-31550D01*
X59000Y-31550D02*
X59350Y-31900D01*
X59350Y-31900D02*
X60250Y-31900D01*
X60250Y-31900D02*
X61100Y-31050D01*
X61100Y-31050D02*
X64150Y-31050D01*
X64150Y-31050D02*
X64250Y-30950D01*
X64250Y-30950D02*
X64250Y-30550D01*
X64250Y-30550D02*
X64250Y-30450D01*
X64250Y-30450D02*
X65400Y-29300D01*
X65400Y-29300D02*
X66250Y-29300D01*
X56900Y-31550D02*
X56900Y-30950D01*
X57600Y-46750D02*
X57800Y-46750D01*
X57800Y-46750D02*
X58700Y-45850D01*
X58700Y-45850D02*
X63450Y-45850D01*
X63450Y-45850D02*
X63750Y-46150D01*
X63750Y-46150D02*
X64800Y-46150D01*
X57000Y-47250D02*
X57000Y-46750D01*
X62250Y-30100D02*
X62250Y-29800D01*
X62250Y-29800D02*
X62200Y-29750D01*
X62250Y-30550D02*
X62250Y-30100D01*
X64200Y-33250D02*
X64200Y-34800D01*
X64200Y-34800D02*
X66250Y-34800D01*
X60000Y-30950D02*
X60000Y-30700D01*
X60000Y-30700D02*
X60700Y-30000D01*
X60700Y-30000D02*
X62150Y-30000D01*
X62150Y-30000D02*
X62250Y-30100D01*
X62250Y-30100D02*
X62250Y-30550D01*
X59400Y-30950D02*
X59400Y-31550D01*
X57600Y-44700D02*
X60200Y-44700D01*
X60200Y-44700D02*
X61150Y-45650D01*
X61150Y-47000D02*
X62600Y-48450D01*
X62600Y-48450D02*
X64750Y-48450D01*
X57000Y-45200D02*
X57000Y-44700D01*
X60000Y-32650D02*
X60800Y-32650D01*
X60800Y-32650D02*
X61400Y-33250D01*
X61400Y-33250D02*
X62150Y-33250D01*
X62150Y-33250D02*
X62250Y-33150D01*
X62250Y-33150D02*
X62250Y-32650D01*
X62250Y-32650D02*
X62250Y-31500D01*
X62250Y-31500D02*
X62450Y-31300D01*
X62450Y-31300D02*
X64900Y-31300D01*
X64900Y-31300D02*
X65400Y-30800D01*
X65400Y-30800D02*
X66250Y-30800D01*
X59400Y-33650D02*
X59400Y-32650D01*
X59600Y-46750D02*
X62850Y-46750D01*
X62850Y-46750D02*
X63050Y-46950D01*
X63050Y-46950D02*
X63050Y-46550D01*
X59000Y-46150D02*
X59000Y-46750D01*
X57500Y-32750D02*
X58550Y-32750D01*
X58550Y-32750D02*
X59150Y-32150D01*
X59150Y-32150D02*
X61550Y-32150D01*
X62500Y-32100D02*
X62750Y-31850D01*
X62750Y-31850D02*
X63900Y-31850D01*
X63900Y-31850D02*
X64250Y-32200D01*
X64250Y-32200D02*
X64250Y-32650D01*
X64250Y-32650D02*
X64250Y-32750D01*
X64250Y-32750D02*
X64800Y-33300D01*
X64800Y-33300D02*
X66250Y-33300D01*
X56900Y-32750D02*
X56900Y-33450D01*
X63850Y-54900D02*
X63850Y-53850D01*
X63850Y-53850D02*
X66650Y-51050D01*
X66650Y-51050D02*
X67350Y-51050D01*
X68000Y-51050D02*
X68050Y-51000D01*
X68050Y-51000D02*
X71000Y-51000D01*
X71000Y-51000D02*
X71350Y-50650D01*
X71350Y-50650D02*
X71350Y-46000D01*
X71350Y-46000D02*
X73250Y-44100D01*
X73250Y-44100D02*
X74050Y-44100D01*
X74050Y-44100D02*
X74200Y-43950D01*
X74200Y-43950D02*
X74200Y-39550D01*
X74200Y-39550D02*
X74000Y-39350D01*
X74000Y-39350D02*
X74000Y-39050D01*
X74000Y-39050D02*
X74150Y-38900D01*
X74150Y-38900D02*
X74150Y-37950D01*
X72600Y-24050D02*
X72750Y-24050D01*
X72750Y-24050D02*
X73200Y-24500D01*
X73200Y-24500D02*
X73200Y-26300D01*
X73200Y-26750D02*
X72750Y-27200D01*
X72750Y-27200D02*
X72750Y-31450D01*
X72750Y-32050D02*
X72700Y-32100D01*
X72700Y-32100D02*
X72700Y-34450D01*
X72700Y-34450D02*
X74200Y-35950D01*
X74200Y-35950D02*
X74200Y-37100D01*
X74200Y-37100D02*
X73950Y-37350D01*
X73950Y-37350D02*
X73800Y-37350D01*
X73800Y-37350D02*
X73600Y-37550D01*
X73600Y-37550D02*
X73600Y-37900D01*
X73600Y-37900D02*
X73650Y-37950D01*
X73650Y-37950D02*
X73650Y-38750D01*
X73650Y-38750D02*
X73550Y-38850D01*
X73550Y-38850D02*
X73550Y-39550D01*
X72350Y-45250D02*
X73300Y-44300D01*
X73300Y-44300D02*
X74200Y-44300D01*
X74200Y-44300D02*
X74350Y-44150D01*
X74350Y-44150D02*
X74350Y-39500D01*
X74350Y-39500D02*
X74150Y-39300D01*
X74150Y-39300D02*
X74150Y-39100D01*
X74150Y-39100D02*
X74350Y-38900D01*
X74350Y-38900D02*
X74350Y-38200D01*
X72550Y-50900D02*
X72550Y-46150D01*
X77900Y-26150D02*
X77900Y-28750D01*
X77900Y-28750D02*
X75100Y-31550D01*
X75100Y-31550D02*
X75100Y-33300D01*
X75100Y-33800D02*
X74150Y-34750D01*
X74150Y-34750D02*
X74150Y-35550D01*
X74000Y-36600D02*
X74000Y-37100D01*
X74000Y-37100D02*
X73900Y-37200D01*
X73900Y-37200D02*
X73750Y-37200D01*
X73750Y-37200D02*
X73450Y-37500D01*
X73450Y-37500D02*
X73450Y-37950D01*
X73450Y-37950D02*
X73500Y-38000D01*
X73500Y-38000D02*
X73500Y-38700D01*
X73500Y-38700D02*
X73350Y-38850D01*
X73350Y-38850D02*
X73350Y-39400D01*
X75500Y-45850D02*
X75300Y-45650D01*
X75300Y-45650D02*
X75300Y-39550D01*
X75300Y-39550D02*
X74950Y-39200D01*
X74950Y-39200D02*
X74350Y-39200D01*
X75700Y-56300D02*
X75700Y-46200D01*
X64600Y-27550D02*
X64950Y-27550D01*
X64950Y-27550D02*
X65350Y-27950D01*
X68550Y-28450D02*
X69500Y-28450D01*
X74850Y-31450D02*
X74850Y-32150D01*
X75300Y-33950D02*
X74350Y-34900D01*
X74350Y-34900D02*
X74350Y-37150D01*
X74350Y-37150D02*
X74000Y-37500D01*
X74000Y-37500D02*
X73850Y-37500D01*
X73850Y-37500D02*
X73750Y-37600D01*
X73750Y-37600D02*
X73750Y-37850D01*
X73750Y-37850D02*
X73800Y-37900D01*
X73800Y-37900D02*
X73800Y-38800D01*
X73800Y-38800D02*
X73700Y-38900D01*
X73700Y-38900D02*
X73700Y-39450D01*
X73700Y-39450D02*
X73900Y-39650D01*
X73900Y-39650D02*
X73900Y-39700D01*
X73900Y-39700D02*
X73850Y-39750D01*
X61450Y-51850D02*
X65650Y-51850D01*
X65650Y-51850D02*
X66700Y-50800D01*
X66700Y-50800D02*
X67600Y-50800D01*
X68300Y-50800D02*
X70950Y-50800D01*
X70950Y-50800D02*
X71200Y-50550D01*
X71200Y-50550D02*
X71200Y-45950D01*
X71200Y-45950D02*
X73200Y-43950D01*
X73200Y-43950D02*
X73950Y-43950D01*
X73950Y-43950D02*
X74050Y-43850D01*
X74050Y-43850D02*
X74050Y-39600D01*
X74050Y-39600D02*
X73850Y-39400D01*
X73850Y-39400D02*
X73850Y-38950D01*
X73850Y-38950D02*
X73950Y-38850D01*
X73950Y-38850D02*
X73950Y-37750D01*
X70550Y-42800D02*
X70550Y-43300D01*
X70550Y-43300D02*
X70450Y-43200D01*
X70450Y-43200D02*
X68900Y-43200D01*
X65950Y-43200D02*
X65350Y-43800D01*
X64900Y-43700D02*
X64750Y-43850D01*
X64750Y-43850D02*
X64450Y-43850D01*
X63600Y-43650D02*
X61700Y-41750D01*
X61700Y-41750D02*
X60750Y-41750D01*
X60750Y-41750D02*
X58550Y-39550D01*
X58550Y-39550D02*
X58550Y-35450D01*
X58550Y-35450D02*
X56300Y-33200D01*
X56300Y-33200D02*
X56300Y-30350D01*
X56300Y-30350D02*
X58250Y-28400D01*
X58250Y-28400D02*
X58250Y-24250D01*
X58250Y-24250D02*
X58050Y-24050D01*
X58050Y-24050D02*
X57600Y-24050D01*
X76800Y-38500D02*
X75741Y-37441D01*
X75741Y-37441D02*
X74326Y-37441D01*
X71899Y-36801D02*
X72326Y-37228D01*
X72326Y-37228D02*
X73147Y-37228D01*
X72955Y-25400D02*
X67278Y-31077D01*
X67278Y-31077D02*
X67278Y-34461D01*
X67278Y-34461D02*
X66538Y-35201D01*
X66538Y-35201D02*
X66538Y-36578D01*
X66538Y-36578D02*
X67082Y-37122D01*
X67100Y-48200D02*
X66900Y-48000D01*
X66900Y-48000D02*
X66300Y-48000D01*
X66300Y-48000D02*
X65350Y-47050D01*
X65350Y-47050D02*
X65350Y-45100D01*
X65350Y-45100D02*
X64700Y-44450D01*
X64350Y-44100D02*
X64250Y-44000D01*
X64250Y-44000D02*
X64250Y-42650D01*
X64250Y-42650D02*
X65450Y-41450D01*
X67150Y-35700D02*
X67200Y-35750D01*
X67200Y-35750D02*
X69100Y-35750D01*
X67150Y-44300D02*
X67000Y-44150D01*
X67000Y-44150D02*
X65050Y-44150D01*
X64050Y-42500D02*
X65100Y-41450D01*
X65100Y-41450D02*
X65150Y-41450D01*
X67250Y-35500D02*
X67350Y-35400D01*
X67350Y-35400D02*
X69400Y-35400D01*
X71650Y-46700D02*
X73550Y-44800D01*
X73550Y-44800D02*
X74850Y-44800D01*
X74850Y-44800D02*
X75050Y-44600D01*
X75050Y-44600D02*
X75050Y-44350D01*
X75050Y-44350D02*
X74950Y-44250D01*
X74950Y-44250D02*
X74600Y-44250D01*
X74550Y-40500D02*
X74550Y-39900D01*
X74550Y-37200D02*
X74550Y-36600D01*
X72400Y-35050D02*
X72350Y-35100D01*
X72350Y-35100D02*
X71700Y-35100D01*
X71700Y-35100D02*
X71200Y-35600D01*
X71200Y-35600D02*
X70650Y-35600D01*
X71650Y-46200D02*
X73350Y-44500D01*
X73350Y-44500D02*
X74850Y-44500D01*
X74800Y-40450D02*
X74800Y-39900D01*
X71950Y-34900D02*
X71800Y-34750D01*
X71800Y-34750D02*
X71800Y-32800D01*
X71050Y-32800D02*
X70050Y-32800D01*
X75050Y-40450D02*
X75050Y-39850D01*
X73000Y-36850D02*
X72350Y-36850D01*
X71650Y-34900D02*
X71550Y-34800D01*
X71550Y-34800D02*
X71550Y-33300D01*
X71050Y-33300D02*
X70050Y-33300D01*
X70050Y-30800D02*
X69800Y-30800D01*
X69800Y-30800D02*
X69000Y-31600D01*
X69000Y-31600D02*
X69000Y-33350D01*
X69000Y-33350D02*
X68350Y-34000D01*
X68350Y-34000D02*
X68350Y-34050D01*
X68350Y-34050D02*
X69650Y-35350D01*
X69650Y-35350D02*
X70850Y-35350D01*
X70800Y-33700D02*
X70700Y-33800D01*
X70700Y-33800D02*
X70700Y-35100D01*
X70700Y-35100D02*
X70900Y-35100D01*
X70900Y-35100D02*
X71100Y-35300D01*
X71100Y-35300D02*
X71100Y-35400D01*
X70050Y-31300D02*
X71100Y-31300D01*
X71350Y-34900D02*
X71350Y-32500D01*
X71350Y-32500D02*
X71150Y-32300D01*
X71150Y-32300D02*
X70050Y-32300D01*
X68092Y-36601D02*
X70677Y-36601D01*
X70677Y-36601D02*
X72035Y-37959D01*
X72035Y-37959D02*
X72035Y-41265D01*
X72035Y-41265D02*
X71088Y-42212D01*
X71088Y-42212D02*
X71088Y-49361D01*
X71088Y-49361D02*
X70966Y-49483D01*
X68542Y-35095D02*
X68507Y-35095D01*
X68507Y-35095D02*
X67997Y-34585D01*
X67997Y-34585D02*
X67997Y-32102D01*
X67997Y-32102D02*
X69087Y-31012D01*
X69087Y-31012D02*
X69343Y-31012D01*
X82050Y-39600D02*
X82421Y-39229D01*
X82421Y-39229D02*
X82421Y-34232D01*
X82421Y-34232D02*
X82399Y-34210D01*
X82399Y-34210D02*
X81037Y-34210D01*
X81037Y-34210D02*
X78200Y-31373D01*
X78200Y-31373D02*
X78200Y-25975D01*
X78200Y-25975D02*
X78178Y-25953D01*
X78178Y-25953D02*
X77604Y-25953D01*
X77604Y-25953D02*
X74210Y-29347D01*
X74210Y-29347D02*
X73330Y-29347D01*
X70518Y-34439D02*
X70518Y-35019D01*
X70518Y-35019D02*
X70361Y-35176D01*
X70361Y-35176D02*
X69874Y-35176D01*
X81050Y-38600D02*
X79450Y-37000D01*
X79450Y-37000D02*
X76404Y-37000D01*
X76404Y-37000D02*
X75141Y-35737D01*
X68485Y-36772D02*
X67099Y-36772D01*
X67099Y-36772D02*
X66696Y-36369D01*
X66696Y-36369D02*
X66696Y-35272D01*
X66696Y-35272D02*
X67453Y-34515D01*
X67453Y-34515D02*
X67453Y-31313D01*
X67453Y-31313D02*
X71060Y-27706D01*
X71060Y-27706D02*
X71924Y-27706D01*
X73551Y-35558D02*
X72853Y-35558D01*
X72853Y-35558D02*
X71537Y-36874D01*
X73877Y-35220D02*
X73877Y-34738D01*
X73877Y-34738D02*
X75003Y-33612D01*
X75003Y-33612D02*
X75772Y-33612D01*
X75772Y-33612D02*
X76032Y-33872D01*
X76032Y-33872D02*
X79768Y-33872D01*
X79768Y-33872D02*
X80955Y-35059D01*
X80955Y-35059D02*
X81250Y-35059D01*
X81250Y-35059D02*
X81422Y-35231D01*
X81422Y-35231D02*
X81422Y-37228D01*
X81422Y-37228D02*
X81050Y-37600D01*
X81050Y-36600D02*
X79560Y-35110D01*
X79560Y-35110D02*
X74985Y-35110D01*
X74985Y-35110D02*
X74684Y-34809D01*
X72529Y-34458D02*
X72864Y-34793D01*
X72864Y-34793D02*
X72864Y-35228D01*
X72864Y-35228D02*
X71903Y-36189D01*
X71903Y-36189D02*
X71486Y-36189D01*
X72525Y-33636D02*
X72078Y-34083D01*
X72078Y-34083D02*
X72078Y-34469D01*
X72078Y-34469D02*
X72571Y-34962D01*
X72571Y-34962D02*
X72571Y-35164D01*
X72571Y-35164D02*
X71861Y-35874D01*
X71861Y-35874D02*
X70479Y-35874D01*
X81050Y-35600D02*
X79579Y-34129D01*
X79579Y-34129D02*
X75458Y-34129D01*
X81050Y-34600D02*
X81544Y-35094D01*
X81544Y-35094D02*
X81544Y-37793D01*
X81544Y-37793D02*
X81479Y-37858D01*
X81479Y-37858D02*
X81479Y-38801D01*
X81479Y-38801D02*
X81290Y-38990D01*
X81290Y-38990D02*
X75518Y-38990D01*
X75518Y-38990D02*
X74139Y-37611D01*
X73273Y-37432D02*
X72787Y-37918D01*
X72787Y-37918D02*
X72787Y-38379D01*
X69422Y-30729D02*
X69163Y-30729D01*
X69163Y-30729D02*
X67815Y-32077D01*
X67815Y-32077D02*
X67815Y-34693D01*
X67815Y-34693D02*
X66926Y-35582D01*
X66926Y-35582D02*
X66926Y-35832D01*
X66926Y-35832D02*
X67392Y-36298D01*
X67392Y-36298D02*
X70719Y-36298D01*
X70719Y-36298D02*
X71526Y-37105D01*
X71526Y-37105D02*
X71781Y-37105D01*
X76224Y-29629D02*
X73367Y-29629D01*
X73367Y-29629D02*
X72927Y-29189D01*
X71014Y-30474D02*
X70929Y-30559D01*
X70929Y-30559D02*
X69097Y-30559D01*
X69097Y-30559D02*
X67687Y-31969D01*
X67687Y-31969D02*
X67687Y-34633D01*
X67687Y-34633D02*
X66815Y-35505D01*
X66815Y-35505D02*
X66815Y-35879D01*
X66815Y-35879D02*
X67345Y-36409D01*
X67345Y-36409D02*
X70673Y-36409D01*
X70673Y-36409D02*
X72607Y-38343D01*
X72607Y-38343D02*
X72607Y-38578D01*
X72935Y-30081D02*
X76316Y-30081D01*
X76316Y-30081D02*
X76594Y-29803D01*
X67875Y-40484D02*
X68020Y-40629D01*
X68020Y-40629D02*
X70070Y-40629D01*
X70070Y-40629D02*
X70887Y-41446D01*
X81050Y-30600D02*
X81050Y-28485D01*
X81050Y-28485D02*
X78312Y-25747D01*
X78312Y-25747D02*
X76032Y-25747D01*
X76032Y-25747D02*
X74138Y-23853D01*
X74138Y-23853D02*
X72347Y-23853D01*
X72347Y-23853D02*
X72303Y-23897D01*
X72303Y-23897D02*
X72303Y-24233D01*
X72303Y-24233D02*
X72325Y-24255D01*
X72325Y-24255D02*
X72655Y-24255D01*
X72655Y-24255D02*
X72897Y-24497D01*
X72897Y-24497D02*
X72897Y-25207D01*
X72897Y-25207D02*
X72417Y-25687D01*
X72417Y-25687D02*
X72417Y-25779D01*
X72417Y-25779D02*
X66921Y-31275D01*
X66921Y-31275D02*
X66921Y-34659D01*
X66921Y-34659D02*
X66426Y-35154D01*
X66426Y-35154D02*
X66426Y-39252D01*
X66426Y-39252D02*
X67528Y-40354D01*
X68316Y-34650D02*
X68174Y-34508D01*
X68174Y-34508D02*
X68174Y-32174D01*
X68174Y-32174D02*
X69135Y-31213D01*
X72519Y-33897D02*
X72234Y-34182D01*
X72234Y-34182D02*
X72234Y-34466D01*
X72234Y-34466D02*
X72752Y-34984D01*
X72752Y-34984D02*
X72752Y-35181D01*
X72752Y-35181D02*
X71927Y-36006D01*
X71927Y-36006D02*
X70590Y-36006D01*
X70590Y-36006D02*
X70473Y-36123D01*
X70473Y-36123D02*
X67869Y-36123D01*
M02*
