M48
;DRILL file {PCBnew (20100406 SVN-R2509)-final} date Thu 29 Apr 2010 10:46:54 PM MSD
;FORMAT={2:4/ absolute / inch / suppress leading zeros}
R,T
VER,1
FMAT,2
INCH,TZ
TCST,OFF
ICI,OFF
ATC,ON
T1C0.008
T2C0.032
T3C0.036
T4C0.039
T5C0.040
T6C0.045
T7C0.056
T8C0.090
%
M47
G05
M72
T1
X56900Y31550
X56900Y33450
X57000Y45200
X57000Y47250
X58350Y47100
X58600Y43200
X58950Y27800
X59000Y46150
X59000Y48250
X59400Y31550
X59400Y33650
X59400Y43500
X60250Y44400
X60300Y33450
X60300Y46100
X60950Y29800
X61100Y30550
X61150Y27750
X61150Y28300
X61150Y45650
X61150Y47000
X61350Y46200
X61400Y43850
X61400Y44250
X61550Y32150
X61950Y48950
X61950Y49450
X62000Y31700
X62100Y42550
X62200Y29750
X62200Y44250
X62200Y47350
X62450Y31700
X62500Y32100
X62700Y46550
X62750Y28250
X62750Y32200
X62850Y37850
X62900Y49700
X63000Y49200
X63000Y53800
X63050Y46550
X63050Y46950
X63100Y38100
X63150Y54500
X63250Y30050
X63250Y47150
X63250Y47400
X63250Y48250
X63450Y35650
X63450Y46150
X63500Y35050
X63600Y43650
X63750Y33700
X63750Y49000
X63900Y35250
X64050Y42500
X64100Y42150
X64200Y33250
X64200Y44650
X64250Y48200
X64350Y37850
X64350Y38100
X64350Y44100
X64400Y35100
X64400Y53550
X64450Y43850
X64500Y41800
X64500Y45100
X64550Y49000
X64700Y44450
X64750Y48450
X64800Y46150
X64900Y43700
X65000Y33900
X65050Y44150
X65150Y34100
X65150Y41450
X65150Y49200
X65300Y33650
X65300Y34350
X65350Y27950
X65350Y43800
X65350Y49700
X65400Y47400
X65450Y41450
X65500Y33800
X65600Y47000
X65700Y33950
X65750Y34350
X65950Y42600
X65950Y43200
X66150Y24500
X66450Y27200
X66700Y31300
X66750Y29800
X66750Y32800
X66750Y34300
X66800Y38350
X66800Y38800
X67082Y37122
X67100Y44700
X67100Y48200
X67150Y35700
X67150Y44300
X67150Y46200
X67200Y47750
X67250Y35500
X67250Y48000
X67350Y51050
X67450Y51700
X67528Y40354
X67600Y50800
X67700Y41000
X67869Y36123
X67875Y40484
X68000Y38200
X68000Y51050
X68092Y36601
X68100Y39600
X68100Y40100
X68150Y40450
X68250Y43400
X68300Y50800
X68316Y34650
X68485Y36772
X68542Y35095
X68550Y28450
X68550Y42800
X68700Y34050
X68700Y36900
X68750Y43000
X68900Y43200
X69000Y43600
X69000Y43850
X69000Y49400
X69050Y42400
X69100Y35750
X69100Y41650
X69135Y31213
X69200Y53300
X69250Y37400
X69300Y41900
X69300Y46100
X69300Y47550
X69343Y31012
X69400Y28200
X69400Y35400
X69422Y30729
X69450Y30300
X69500Y28450
X69500Y48950
X69600Y26900
X69600Y38600
X69600Y43600
X69600Y44400
X69700Y49400
X69850Y43850
X69874Y35176
X69900Y35550
X69950Y44350
X69950Y44900
X69950Y47950
X70350Y35550
X70350Y43000
X70450Y42600
X70479Y35874
X70518Y34439
X70550Y42800
X70650Y35600
X70800Y33700
X70850Y35350
X70850Y47200
X70887Y41446
X70900Y47550
X70900Y48450
X70966Y49483
X71014Y30474
X71050Y32800
X71050Y33300
X71100Y31300
X71100Y34900
X71100Y35400
X71150Y24650
X71150Y33600
X71350Y34900
X71450Y54600
X71486Y36189
X71537Y36874
X71550Y33300
X71550Y38050
X71600Y40050
X71600Y47400
X71600Y47700
X71650Y30800
X71650Y34900
X71650Y38800
X71650Y46200
X71650Y46700
X71700Y40450
X71781Y37105
X71800Y32800
X71899Y36801
X71900Y55800
X71924Y27706
X71950Y31150
X71950Y34900
X72100Y26500
X72300Y47450
X72350Y36850
X72350Y45250
X72350Y48100
X72400Y35050
X72519Y33897
X72525Y33636
X72529Y34458
X72550Y46150
X72607Y38578
X72750Y31450
X72750Y32050
X72787Y38379
X72927Y29189
X72935Y30081
X72955Y25400
X73000Y36850
X73147Y37228
X73150Y48400
X73200Y26300
X73200Y26750
X73200Y46850
X73250Y34700
X73273Y37432
X73330Y29347
X73350Y39400
X73450Y48250
X73550Y39550
X73551Y35558
X73750Y47100
X73850Y39750
X73877Y35220
X73950Y37750
X74000Y36600
X74139Y37611
X74150Y35550
X74150Y37950
X74326Y37441
X74350Y38200
X74350Y39200
X74400Y56300
X74450Y53400
X74550Y36600
X74550Y37200
X74550Y39900
X74550Y40500
X74600Y44250
X74684Y34809
X74800Y39900
X74800Y40450
X74850Y31450
X74850Y32150
X74850Y44500
X75050Y39850
X75050Y40450
X75100Y33300
X75100Y33800
X75141Y35737
X75300Y33950
X75458Y34129
X75500Y45850
X75650Y40200
X75700Y46200
X76224Y29629
X76450Y26750
X76594Y29803
X76650Y43750
X76750Y46800
X76750Y47100
X77500Y46850
X77550Y47150
X77600Y43850
X79450Y46850
X79550Y48450
X81000Y45100
T2
X56700Y25450
X56700Y28450
X57000Y52700
X60000Y52700
X60700Y25800
X63700Y25800
X65500Y55450
X67800Y23950
X68500Y55450
X68550Y52100
X70800Y23950
X71550Y52100
X73300Y31000
X73300Y31800
X74050Y24550
X74200Y46400
X74200Y47700
X74300Y31000
X74300Y31800
X77050Y24550
X77200Y46400
X77200Y47700
X77300Y52500
X77300Y55500
T3
X79620Y44508
X79620Y45492
X80400Y44508
X80400Y45492
T4
X61500Y38900
X61500Y39900
X61500Y40900
X76800Y31500
X76800Y32500
X76800Y33500
X76800Y34500
X76800Y35500
X76800Y36500
X76800Y37500
X76800Y38500
X76800Y39500
X76800Y40500
X77800Y31500
X77800Y32500
X77800Y33500
X77800Y34500
X77800Y35500
X77800Y36500
X77800Y37500
X77800Y38500
X77800Y39500
X77800Y40500
X81050Y30600
X81050Y31600
X81050Y32600
X81050Y33600
X81050Y34600
X81050Y35600
X81050Y36600
X81050Y37600
X81050Y38600
X81050Y39600
X82050Y30600
X82050Y31600
X82050Y32600
X82050Y33600
X82050Y34600
X82050Y35600
X82050Y36600
X82050Y37600
X82050Y38600
X82050Y39600
T5
X65800Y38650
X65800Y40450
T6
X78200Y45500
X78200Y50500
T7
X56200Y37900
X56200Y39900
T8
X81470Y42630
X81470Y47370
T0
M30
